<?xml version="1.0" encoding="utf-8"?>
<!-- Generator: Adobe Illustrator 23.0.1, SVG Export Plug-In . SVG Version: 6.00 Build 0)  -->
<svg version="1.1" id="Warstwa_1" xmlns="http://www.w3.org/2000/svg" xmlns:xlink="http://www.w3.org/1999/xlink" x="0px" y="0px"
	 viewBox="0 0 11.44 11.44" style="enable-background:new 0 0 11.44 11.44;" xml:space="preserve">
<style type="text/css">
	.st0{fill:#1B1B1B;}
</style>
<g>
	<path class="st0" d="M5.72,3.01c1.22,0,2.44,0,3.65,0c0.14,0,0.2,0.02,0.2,0.18c-0.01,1.82-0.01,3.64,0,5.45
		c0,0.16-0.05,0.18-0.19,0.18c-2.44,0-4.87,0-7.31,0c-0.14,0-0.2-0.02-0.2-0.18c0.01-1.82,0.01-3.64,0-5.45
		c0-0.16,0.05-0.18,0.19-0.18C3.28,3.01,4.5,3.01,5.72,3.01z M2.8,3.56c0.05,0.05,0.07,0.08,0.09,0.1c0.84,0.85,1.68,1.71,2.53,2.56
		c0.21,0.21,0.41,0.21,0.62,0c0.27-0.27,0.53-0.54,0.79-0.81c0.58-0.58,1.15-1.16,1.73-1.74c0.03-0.03,0.09-0.06,0.08-0.12
		C6.71,3.56,4.77,3.56,2.8,3.56z M2.84,8.27c1.93,0,3.85,0,5.81,0C8,7.62,7.39,6.99,6.77,6.36C6.72,6.31,6.69,6.33,6.65,6.37
		c-0.1,0.1-0.19,0.19-0.29,0.29C6.11,6.91,5.82,6.95,5.49,6.89C5.2,6.83,5.03,6.6,4.85,6.4c-0.09-0.1-0.14-0.09-0.22,0
		C4.05,6.99,3.48,7.58,2.9,8.17C2.88,8.19,2.83,8.21,2.84,8.27z M2.43,7.84C2.46,7.82,2.48,7.81,2.49,7.8
		c0.6-0.61,1.19-1.22,1.79-1.82c0.06-0.07,0.05-0.1-0.01-0.16C3.87,5.42,3.47,5.01,3.06,4.6C2.86,4.4,2.65,4.19,2.43,3.97
		C2.43,5.27,2.43,6.54,2.43,7.84z M9.01,4.02C8.98,4.05,8.96,4.05,8.95,4.07C8.36,4.66,7.77,5.25,7.18,5.84
		C7.12,5.91,7.13,5.94,7.19,6C7.76,6.58,8.33,7.17,8.9,7.75c0.03,0.03,0.05,0.08,0.11,0.06C9.01,6.56,9.01,5.3,9.01,4.02z"/>
</g>
</svg>
