<?xml version="1.0" encoding="utf-8"?>
<!-- Generator: Adobe Illustrator 23.0.1, SVG Export Plug-In . SVG Version: 6.00 Build 0)  -->
<svg version="1.1" xmlns="http://www.w3.org/2000/svg" xmlns:xlink="http://www.w3.org/1999/xlink" x="0px" y="0px"
	 viewBox="0 0 255.1 172.8" style="enable-background:new 0 0 255.1 172.8;" xml:space="preserve">
<style type="text/css">
	.st0{display:none;}
	.st1{fill:#FFFFFF;}
</style>
<g id="Warstwa_2" class="st0">
</g>
<g id="Warstwa_1">
	<path class="st1" d="M76.3,10.2c1.3-0.1,2.5-0.4,3.8-0.4c2.8-0.1,5.6-0.1,8.4,0c2.6-0.1,5.2,0.5,7.9,0.7c1.3,0.3,2.5,0.5,3.8,0.7
		c0.9,0.3,1.8,0.5,2.8,0.6c2.4,0.7,4.8,1.3,7.1,2.1c15.8,5.4,29.8,16.2,39,30.1c5.4,8.1,9.3,17.2,11.2,26.8c0.5,1.7,0.5,3.4,1,5.1
		c0.2,2,0.5,4,0.5,6.1c0,1,0.3,1.9,0.2,2.9c0,1.7,0.1,3.5-0.2,5.2c-0.1,2.3-0.2,4.6-0.5,6.9c-0.5,1.7-0.4,3.4-0.9,5.1
		c-1.3,6.4-3.5,12.7-6.4,18.5c-0.1,0.3-0.3,0.5-0.5,0.8c-4.2-6.4-8.5-12.7-12.8-19.1c-7.3-10.9-14.7-21.8-22-32.7
		c-0.7-1-1.2-2.1-2.2-2.9c-2-2.9-4.2-5.7-6.9-8c-5.7-5-13.1-8.3-20.7-9c-1.7,0-3.3-0.3-5-0.1c-4.7,0.1-9.3,1.2-13.6,3.1
		c-10.5,4.6-18.6,14.4-21,25.6c-0.5,1.3-0.4,2.8-0.7,4.2c-0.1,1.8-0.3,3.6-0.1,5.4c0,1.8,0.4,3.6,0.5,5.4c0.3,0.9,0.5,1.8,0.6,2.7
		c0.7,2.3,1.5,4.6,2.6,6.8c4.8,9.8,14.2,17.2,24.9,19.5c1.5,0.5,3.1,0.5,4.6,0.7c0.5,0.1,0.9,0.5,1.2,0.9c7.9,12,15.9,23.9,23.8,36
		c-1,0.4-2.1,0.5-3.1,0.9c-3.5,0.7-7,1.5-10.5,1.7c-1.3,0.2-2.5,0.4-3.8,0.4c-3.1,0-6.2,0.1-9.2,0c-1.7-0.2-3.5-0.4-5.2-0.6
		c-1.3,0-2.6-0.5-3.9-0.6c-8.9-1.7-17.5-4.9-25.3-9.6C32,143.9,21,131.5,14.7,117.1c-2-4.4-3.5-9.1-4.6-13.8c-0.4-1.5-0.5-3-0.9-4.5
		c-0.3-2-0.4-4-0.8-6c-0.1-2.8-0.3-5.6-0.2-8.3c0.2-1.6,0-3.1,0.2-4.7c0.4-1.9,0.4-3.8,0.7-5.7c0.5-1.6,0.5-3.4,1.1-5
		c3-12.9,9.4-25,18.5-34.7C38.2,24,50.6,16.3,64.2,12.5c1-0.3,2-0.4,2.9-0.8c1.7-0.2,3.2-0.8,4.9-0.9C73.4,10.4,74.8,10.4,76.3,10.2
		z"/>
	<path class="st1" d="M143.4,11.9c2.8-1.1,5.8-1.8,8.8-2.1c11.8-0.1,23.6,0,35.5,0c3.4,0,6.7,0.4,10.1,0.8c1.2,0.3,2.5,0.4,3.7,0.7
		c1.1,0.4,2.3,0.4,3.3,0.8c10,2.6,19.4,7.6,27,14.8c7.5,7.1,13,16.5,14.8,26.7c0.7,2.7,0.7,5.5,0.7,8.2c-0.1,11.4,0,22.7-0.1,34.1
		c0,4.3-0.1,8.6,0.1,12.9c0,3.5,0.1,7.1-0.8,10.6c-0.3,2.3-1.1,4.4-1.7,6.6c-3,8.4-8.3,15.8-14.9,21.6c-8.7,7.6-19.7,12.5-31.1,14.4
		c-2.1,0.5-4.2,0.4-6.3,0.7c-2.9,0.4-5.9,0.3-8.8,0.3c-7,0-14,0-21,0c-0.3,0-0.6,0-0.8-0.1c0-0.3,0-0.6,0.3-0.9
		c1.8-2.1,3.2-4.7,3.7-7.5c0.4-1.4,0.7-2.8,1.2-4.2c0.4-1.8,1-3.7,0.6-5.6c-0.2-2.1-0.9-4.1-1.4-6.1c-0.6-1.9-0.9-3.9-1.8-5.6
		c-0.3-0.8,0.3-1.4,0.9-1.9c0.6-0.1,1.3,0,1.9-0.1c6.8,0,13.5,0,20.3,0c1.1-0.2,2.1,0.1,3.2,0c4.6-0.3,9.2-2,12.8-5.1
		c2.2-2,4.1-4.4,4.9-7.3c0.5-1,0.4-2.1,0.7-3.2c0.1-0.6,0.3-1.2,0.2-1.8c0-18.4,0-36.7,0-55.1c-0.1-4.9-2.8-9.5-6.6-12.5
		c-3-2.3-6.7-3.8-10.4-4.3c-2-0.2-3.9-0.1-5.9-0.1c-6.9,0-13.7,0-20.6,0c-0.6,0-1.2-0.3-1.5-0.8c-3.7-6.1-8.3-11.6-13.2-16.9
		c-0.8-0.8-1.6-1.5-2.4-2.4c-2.2-2-4.4-3.9-6.8-5.7c-0.7-0.7-1.7-1.1-2.4-1.9C140.7,13,142.1,12.5,143.4,11.9z"/>
	<path class="st1" d="M100.3,85.9c2.4-0.4,4.8-0.5,7.1-0.1c1.8,0.1,3.6,0.8,5.3,1.4c2.5,1.1,4.8,2.6,6.7,4.6
		c1.6,2.2,3.1,4.4,4.6,6.7c7.3,11.1,14.6,22.1,21.9,33.2c0.6,1,1.2,2,1.9,2.8c0.8,1.4,2,2.5,2.7,3.9c1.4,2.8,2.1,5.9,1.8,9
		c-0.5,4.8-3.5,9.1-7.4,11.8c-2,1.4-4.3,2.4-6.6,3c-1.3,0.2-2.5,0.7-3.8,0.6c-2,0-4.1,0.2-6-0.4c-2.2-0.4-4.3-1.2-6.3-2.3
		c-1.6-1-3.3-2.1-4.4-3.7c-2-2.8-3.8-5.7-5.7-8.5c-8.6-13-17.2-25.9-25.7-38.9c-1.5-2.1-1.6-4.8-1.5-7.2c0-2.2,0.7-4.4,1.8-6.3
		C89.4,90.4,94.7,86.8,100.3,85.9z"/>
</g>
</svg>
