<?xml version="1.0" encoding="utf-8"?>
<!-- Generator: Adobe Illustrator 23.0.1, SVG Export Plug-In . SVG Version: 6.00 Build 0)  -->
<svg version="1.1" id="Warstwa_1" xmlns="http://www.w3.org/2000/svg" xmlns:xlink="http://www.w3.org/1999/xlink" x="0px" y="0px"
	 viewBox="0 0 11.44 11.44" style="enable-background:new 0 0 11.44 11.44;" xml:space="preserve">
<style type="text/css">
	.st0{display:none;}
	.st1{display:inline;fill:#1B1B1B;}
	.st2{display:inline;}
	.st3{fill:#1B1B1B;}
</style>
<g class="st0">
	<path class="st1" d="M5.72,3.01c1.22,0,2.44,0,3.65,0c0.14,0,0.2,0.02,0.2,0.18c-0.01,1.82-0.01,3.64,0,5.45
		c0,0.16-0.05,0.18-0.19,0.18c-2.44,0-4.87,0-7.31,0c-0.14,0-0.2-0.02-0.2-0.18c0.01-1.82,0.01-3.64,0-5.45
		c0-0.16,0.05-0.18,0.19-0.18C3.28,3.01,4.5,3.01,5.72,3.01z M2.8,3.56c0.05,0.05,0.07,0.08,0.09,0.1c0.84,0.85,1.68,1.71,2.53,2.56
		c0.21,0.21,0.41,0.21,0.62,0c0.27-0.27,0.53-0.54,0.79-0.81c0.58-0.58,1.15-1.16,1.73-1.74c0.03-0.03,0.09-0.06,0.08-0.12
		C6.71,3.56,4.77,3.56,2.8,3.56z M2.84,8.27c1.93,0,3.85,0,5.81,0C8,7.62,7.39,6.99,6.77,6.36C6.72,6.31,6.69,6.33,6.65,6.37
		c-0.1,0.1-0.19,0.19-0.29,0.29C6.11,6.91,5.82,6.95,5.49,6.89C5.2,6.83,5.03,6.6,4.85,6.4c-0.09-0.1-0.14-0.09-0.22,0
		C4.05,6.99,3.48,7.58,2.9,8.17C2.88,8.19,2.83,8.21,2.84,8.27z M2.43,7.84C2.46,7.82,2.48,7.81,2.49,7.8
		c0.6-0.61,1.19-1.22,1.79-1.82c0.06-0.07,0.05-0.1-0.01-0.16C3.87,5.42,3.47,5.01,3.06,4.6C2.86,4.4,2.65,4.19,2.43,3.97
		C2.43,5.27,2.43,6.54,2.43,7.84z M9.01,4.02C8.98,4.05,8.96,4.05,8.95,4.07C8.36,4.66,7.77,5.25,7.18,5.84
		C7.12,5.91,7.13,5.94,7.19,6C7.76,6.58,8.33,7.17,8.9,7.75c0.03,0.03,0.05,0.08,0.11,0.06C9.01,6.56,9.01,5.3,9.01,4.02z"/>
</g>
<g class="st0">
	<g class="st2">
		<path class="st3" d="M1.42,5.41c0.03-0.18,0.04-0.35,0.08-0.53c0.15-0.7,0.47-1.32,0.95-1.86c0.56-0.63,1.26-1.05,2.08-1.24
			c1.28-0.29,2.44-0.03,3.47,0.78c0.84,0.66,1.34,1.54,1.48,2.59C9.65,6.33,9.35,7.39,8.6,8.31c-0.66,0.8-1.52,1.27-2.55,1.43
			C5.96,9.75,5.88,9.76,5.79,9.78c-0.21,0-0.42,0-0.63,0c-0.02,0-0.04-0.01-0.05-0.01C4.92,9.75,4.73,9.72,4.54,9.67
			c-0.82-0.2-1.52-0.61-2.09-1.24c-0.48-0.54-0.8-1.16-0.95-1.86C1.47,6.4,1.45,6.22,1.42,6.04C1.42,5.83,1.42,5.62,1.42,5.41z
			 M5.48,2.08c-2.01,0-3.64,1.62-3.64,3.63c0,2.02,1.62,3.65,3.64,3.65c2.01,0,3.64-1.63,3.64-3.64C9.11,3.71,7.49,2.08,5.48,2.08z"
			/>
		<path class="st3" d="M6.16,7.8C5.89,7.81,5.58,7.68,5.3,7.5c-0.71-0.47-1.26-1.08-1.6-1.86c-0.2-0.45-0.22-0.9-0.01-1.36
			c0.07-0.14,0.16-0.27,0.29-0.37c0.06-0.05,0.11-0.1,0.17-0.14C4.31,3.61,4.48,3.6,4.64,3.78c0.17,0.19,0.32,0.4,0.41,0.65
			c0.07,0.19,0.05,0.36-0.12,0.5C4.85,4.98,4.78,5.04,4.71,5.1C4.57,5.2,4.52,5.33,4.56,5.5c0.03,0.1,0.07,0.19,0.12,0.27
			c0.19,0.31,0.44,0.58,0.73,0.8C5.7,6.79,5.87,6.77,6.11,6.5c0.21-0.25,0.46-0.28,0.72-0.09C7,6.54,7.17,6.67,7.31,6.84
			C7.45,7,7.44,7.16,7.29,7.31C7.2,7.39,7.11,7.48,7.02,7.55C6.79,7.74,6.52,7.8,6.16,7.8z"/>
	</g>
</g>
<g>
	<path class="st3" d="M2.7,9.62c0-0.26,0-0.53,0-0.79c0-0.03-0.01-0.04-0.03-0.06C2.21,8.39,1.84,7.93,1.58,7.39
		C1.43,7.06,1.32,6.72,1.27,6.37C1.25,6.23,1.23,6.09,1.23,5.95C1.2,5.36,1.31,4.81,1.55,4.28C1.73,3.86,1.98,3.49,2.3,3.16
		c0.46-0.49,1.01-0.84,1.64-1.07c0.28-0.1,0.58-0.18,0.88-0.22c0.12-0.02,0.25-0.03,0.37-0.04C5.29,1.82,5.4,1.82,5.5,1.82
		c0.34,0,0.67,0.04,1,0.12c0.65,0.15,1.24,0.43,1.76,0.86c0.54,0.44,0.95,0.98,1.2,1.63c0.11,0.27,0.18,0.54,0.22,0.83
		C9.73,5.47,9.74,5.7,9.73,5.93C9.71,6.54,9.54,7.11,9.24,7.65C9.05,7.99,8.8,8.3,8.52,8.58c-0.29,0.27-0.61,0.5-0.95,0.68
		c-0.39,0.21-0.8,0.35-1.24,0.43C6.17,9.72,6.01,9.75,5.85,9.76c-0.1,0.01-0.19,0.01-0.29,0.02C5.15,9.78,4.74,9.72,4.34,9.62
		C4.32,9.61,4.3,9.61,4.28,9.63c-0.52,0.27-1.04,0.54-1.55,0.81C2.7,10.45,2.7,10.45,2.7,10.41C2.7,10.15,2.7,9.88,2.7,9.62z
		 M3.08,9.23c0,0.19,0,0.39,0,0.58c0,0.02,0,0.03,0.02,0.02c0,0,0.01,0,0.01-0.01c0.35-0.18,0.71-0.37,1.06-0.56
		c0.06-0.03,0.12-0.04,0.18-0.02c0.36,0.1,0.72,0.15,1.09,0.15c0.12,0,0.25-0.01,0.37-0.02C5.96,9.37,6.1,9.35,6.24,9.33
		C6.67,9.25,7.07,9.11,7.45,8.9c0.56-0.31,1.02-0.73,1.37-1.28c0.31-0.49,0.49-1.03,0.53-1.61c0.01-0.15,0.01-0.31,0-0.46
		C9.33,5.39,9.31,5.23,9.28,5.08C9.14,4.45,8.85,3.91,8.41,3.44c-0.37-0.4-0.8-0.7-1.3-0.91c-0.4-0.18-0.82-0.28-1.26-0.32
		C5.7,2.2,5.55,2.19,5.39,2.2c-0.17,0-0.33,0.02-0.5,0.04C4.68,2.27,4.48,2.31,4.27,2.37c-0.71,0.22-1.31,0.6-1.81,1.15
		C2.13,3.91,1.88,4.35,1.73,4.85C1.66,5.1,1.62,5.35,1.6,5.61C1.6,5.72,1.6,5.83,1.6,5.94c0,0.09,0.01,0.17,0.02,0.25
		c0.02,0.16,0.05,0.32,0.09,0.48c0.1,0.37,0.26,0.72,0.47,1.03c0.24,0.35,0.53,0.65,0.86,0.9c0.02,0.01,0.03,0.03,0.03,0.05
		C3.08,8.85,3.08,9.04,3.08,9.23z"/>
	<path class="st3" d="M2.83,7.08c0.04-0.04,0.07-0.07,0.1-0.11c0.25-0.26,0.5-0.53,0.75-0.79c0.29-0.31,0.59-0.62,0.88-0.94
		c0.16-0.17,0.31-0.33,0.47-0.5c0.02-0.02,0.03-0.02,0.05,0c0.35,0.35,0.69,0.69,1.04,1.04C6.14,5.81,6.16,5.81,6.18,5.8
		c0.5-0.28,1.01-0.57,1.51-0.85c0.13-0.07,0.25-0.14,0.38-0.21c0,0,0.01,0,0.02-0.01c0,0.01-0.01,0.02-0.01,0.02
		c-0.31,0.33-0.62,0.67-0.92,1C6.9,6.03,6.65,6.3,6.39,6.58C6.24,6.75,6.08,6.91,5.93,7.08c-0.03,0.03-0.03,0.03-0.06,0
		C5.58,6.77,5.29,6.46,4.99,6.14c-0.05-0.05-0.1-0.11-0.15-0.16c-0.01-0.01-0.02-0.01-0.03,0c-0.24,0.13-0.48,0.27-0.72,0.4
		C3.68,6.61,3.27,6.84,2.87,7.07C2.86,7.07,2.85,7.08,2.83,7.08z"/>
</g>
</svg>
