<?xml version="1.0" encoding="utf-8"?>
<!-- Generator: Adobe Illustrator 23.0.1, SVG Export Plug-In . SVG Version: 6.00 Build 0)  -->
<svg version="1.1" id="Warstwa_1" xmlns="http://www.w3.org/2000/svg" xmlns:xlink="http://www.w3.org/1999/xlink" x="0px" y="0px"
	 viewBox="0 0 11.44 11.44" style="enable-background:new 0 0 11.44 11.44;" xml:space="preserve">
<style type="text/css">
	.st0{display:none;}
	.st1{display:inline;fill:#1B1B1B;}
	.st2{fill:#1B1B1B;}
</style>
<g class="st0">
	<path class="st1" d="M5.72,3.01c1.22,0,2.44,0,3.65,0c0.14,0,0.2,0.02,0.2,0.18c-0.01,1.82-0.01,3.64,0,5.45
		c0,0.16-0.05,0.18-0.19,0.18c-2.44,0-4.87,0-7.31,0c-0.14,0-0.2-0.02-0.2-0.18c0.01-1.82,0.01-3.64,0-5.45
		c0-0.16,0.05-0.18,0.19-0.18C3.28,3.01,4.5,3.01,5.72,3.01z M2.8,3.56c0.05,0.05,0.07,0.08,0.09,0.1c0.84,0.85,1.68,1.71,2.53,2.56
		c0.21,0.21,0.41,0.21,0.62,0c0.27-0.27,0.53-0.54,0.79-0.81c0.58-0.58,1.15-1.16,1.73-1.74c0.03-0.03,0.09-0.06,0.08-0.12
		C6.71,3.56,4.77,3.56,2.8,3.56z M2.84,8.27c1.93,0,3.85,0,5.81,0C8,7.62,7.39,6.99,6.77,6.36C6.72,6.31,6.69,6.33,6.65,6.37
		c-0.1,0.1-0.19,0.19-0.29,0.29C6.11,6.91,5.82,6.95,5.49,6.89C5.2,6.83,5.03,6.6,4.85,6.4c-0.09-0.1-0.14-0.09-0.22,0
		C4.05,6.99,3.48,7.58,2.9,8.17C2.88,8.19,2.83,8.21,2.84,8.27z M2.43,7.84C2.46,7.82,2.48,7.81,2.49,7.8
		c0.6-0.61,1.19-1.22,1.79-1.82c0.06-0.07,0.05-0.1-0.01-0.16C3.87,5.42,3.47,5.01,3.06,4.6C2.86,4.4,2.65,4.19,2.43,3.97
		C2.43,5.27,2.43,6.54,2.43,7.84z M9.01,4.02C8.98,4.05,8.96,4.05,8.95,4.07C8.36,4.66,7.77,5.25,7.18,5.84
		C7.12,5.91,7.13,5.94,7.19,6C7.76,6.58,8.33,7.17,8.9,7.75c0.03,0.03,0.05,0.08,0.11,0.06C9.01,6.56,9.01,5.3,9.01,4.02z"/>
</g>
<g>
	<g>
		<path class="st2" d="M1.42,5.41c0.03-0.18,0.04-0.35,0.08-0.53c0.15-0.7,0.47-1.32,0.95-1.86c0.56-0.63,1.26-1.05,2.08-1.24
			c1.28-0.29,2.44-0.03,3.47,0.78c0.84,0.66,1.34,1.54,1.48,2.59C9.65,6.33,9.35,7.39,8.6,8.31c-0.66,0.8-1.52,1.27-2.55,1.43
			C5.96,9.75,5.88,9.76,5.79,9.78c-0.21,0-0.42,0-0.63,0c-0.02,0-0.04-0.01-0.05-0.01C4.92,9.75,4.73,9.72,4.54,9.67
			c-0.82-0.2-1.52-0.61-2.09-1.24c-0.48-0.54-0.8-1.16-0.95-1.86C1.47,6.4,1.45,6.22,1.42,6.04C1.42,5.83,1.42,5.62,1.42,5.41z
			 M5.48,2.08c-2.01,0-3.64,1.62-3.64,3.63c0,2.02,1.62,3.65,3.64,3.65c2.01,0,3.64-1.63,3.64-3.64C9.11,3.71,7.49,2.08,5.48,2.08z"
			/>
		<path class="st2" d="M6.16,7.8C5.89,7.81,5.58,7.68,5.3,7.5c-0.71-0.47-1.26-1.08-1.6-1.86c-0.2-0.45-0.22-0.9-0.01-1.36
			c0.07-0.14,0.16-0.27,0.29-0.37c0.06-0.05,0.11-0.1,0.17-0.14C4.31,3.61,4.48,3.6,4.64,3.78c0.17,0.19,0.32,0.4,0.41,0.65
			c0.07,0.19,0.05,0.36-0.12,0.5C4.85,4.98,4.78,5.04,4.71,5.1C4.57,5.2,4.52,5.33,4.56,5.5c0.03,0.1,0.07,0.19,0.12,0.27
			c0.19,0.31,0.44,0.58,0.73,0.8C5.7,6.79,5.87,6.77,6.11,6.5c0.21-0.25,0.46-0.28,0.72-0.09C7,6.54,7.17,6.67,7.31,6.84
			C7.45,7,7.44,7.16,7.29,7.31C7.2,7.39,7.11,7.48,7.02,7.55C6.79,7.74,6.52,7.8,6.16,7.8z"/>
	</g>
</g>
</svg>
