<?xml version="1.0" encoding="utf-8"?>
<!-- Generator: Adobe Illustrator 23.0.1, SVG Export Plug-In . SVG Version: 6.00 Build 0)  -->
<svg version="1.1" xmlns="http://www.w3.org/2000/svg" xmlns:xlink="http://www.w3.org/1999/xlink" x="0px" y="0px"
	 viewBox="0 0 129.31 119.21" style="enable-background:new 0 0 129.31 119.21;" xml:space="preserve">
<style type="text/css">
	.st0{display:none;fill:#6D6E71;}
	.st1{fill:#FFFFFF;}
	.st2{display:none;fill:#FFFFFF;}
	.st3{display:none;}
	.st4{display:inline;fill:#FFFFFF;}
</style>
<g id="Warstwa_2">
	<rect class="st0" width="129.31" height="119.21"/>
	<path class="st1" d="M58.67,0.35c1-0.05,1.98-0.3,2.98-0.31c2.17-0.04,4.34-0.05,6.51-0.02c2.06-0.05,4.09,0.4,6.14,0.54
		c0.98,0.23,1.97,0.37,2.97,0.51c0.7,0.24,1.42,0.38,2.16,0.48c1.84,0.53,3.71,0.98,5.51,1.64c12.33,4.19,23.17,12.58,30.38,23.42
		c4.21,6.31,7.25,13.42,8.75,20.85c0.42,1.29,0.36,2.68,0.75,3.98c0.12,1.58,0.38,3.15,0.38,4.74c-0.02,0.77,0.23,1.52,0.18,2.29
		c-0.02,1.35,0.09,2.72-0.15,4.05c-0.05,1.8-0.18,3.6-0.43,5.38c-0.37,1.3-0.33,2.68-0.74,3.97c-1.02,5-2.71,9.87-5.02,14.43
		c-0.11,0.21-0.25,0.42-0.41,0.6c-3.26-4.98-6.63-9.9-9.94-14.85c-5.7-8.49-11.41-16.96-17.11-25.45c-0.55-0.78-0.96-1.66-1.75-2.23
		c-1.55-2.27-3.28-4.45-5.37-6.25c-4.47-3.93-10.19-6.43-16.12-6.97c-1.3,0.01-2.59-0.26-3.89-0.08c-3.65,0.04-7.27,0.91-10.59,2.4
		c-8.2,3.55-14.5,11.22-16.33,19.97c-0.38,1.05-0.3,2.19-0.56,3.26c-0.04,1.41-0.2,2.82-0.07,4.23c-0.04,1.41,0.29,2.78,0.41,4.17
		c0.21,0.7,0.39,1.4,0.5,2.12c0.54,1.81,1.19,3.59,2.05,5.27c3.74,7.62,11.07,13.38,19.38,15.14c1.16,0.38,2.39,0.39,3.59,0.51
		c0.42,0.06,0.72,0.39,0.93,0.73c6.16,9.34,12.37,18.65,18.51,28c-0.77,0.33-1.62,0.4-2.4,0.69c-2.7,0.58-5.42,1.16-8.19,1.33
		c-0.99,0.13-1.98,0.29-2.98,0.28c-2.4,0.02-4.8,0.05-7.2-0.03c-1.35-0.18-2.7-0.3-4.06-0.46c-1.03-0.03-2.01-0.37-3.02-0.48
		c-6.95-1.3-13.66-3.85-19.72-7.49c-10.54-6.29-19.05-15.92-23.98-27.15c-1.54-3.46-2.69-7.08-3.55-10.77
		c-0.33-1.15-0.39-2.36-0.73-3.51c-0.21-1.56-0.3-3.14-0.59-4.69c-0.06-2.16-0.21-4.33-0.13-6.49c0.13-1.21,0.03-2.44,0.16-3.65
		c0.3-1.46,0.35-2.95,0.56-4.42c0.37-1.27,0.42-2.61,0.82-3.88c2.3-10.05,7.34-19.47,14.37-27.02c7.42-8.04,17.08-13.97,27.6-16.94
		c0.75-0.25,1.53-0.34,2.27-0.62c1.29-0.18,2.52-0.64,3.83-0.73C56.42,0.54,57.55,0.49,58.67,0.35z"/>
	<path class="st2" d="M110.91,1.67c2.19-0.85,4.5-1.44,6.85-1.65c9.2-0.05,18.4-0.01,27.6-0.02c2.62-0.02,5.23,0.34,7.83,0.59
		c0.93,0.27,1.91,0.31,2.85,0.52c0.84,0.32,1.77,0.3,2.6,0.64c7.8,2.02,15.14,5.96,20.99,11.53c5.82,5.56,10.14,12.85,11.54,20.82
		c0.52,2.09,0.56,4.27,0.55,6.41c-0.1,8.85-0.03,17.7-0.05,26.55c0.02,3.34-0.04,6.68,0.05,10.02c-0.01,2.75,0.11,5.54-0.6,8.22
		c-0.24,1.75-0.84,3.42-1.34,5.11c-2.3,6.51-6.43,12.31-11.63,16.82c-6.79,5.92-15.31,9.75-24.18,11.19
		c-1.61,0.36-3.28,0.35-4.91,0.58c-2.28,0.28-4.58,0.2-6.87,0.21c-5.45,0-10.91-0.01-16.36,0c-0.22-0.01-0.43-0.03-0.65-0.05
		c-0.01-0.24,0.02-0.5,0.21-0.67c1.43-1.67,2.48-3.68,2.89-5.84c0.34-1.09,0.57-2.21,0.92-3.29c0.28-1.42,0.74-2.88,0.46-4.34
		c-0.17-1.63-0.69-3.18-1.08-4.77c-0.47-1.46-0.67-3.04-1.43-4.39c-0.25-0.63,0.27-1.11,0.7-1.47c0.49-0.12,1-0.04,1.51-0.05
		c5.27,0,10.55,0.01,15.82,0c0.82-0.12,1.64,0.06,2.47-0.02c3.62-0.22,7.19-1.58,9.94-3.96c1.69-1.56,3.15-3.46,3.82-5.68
		c0.38-0.78,0.35-1.66,0.57-2.48c0.12-0.47,0.2-0.95,0.17-1.43c-0.01-14.3,0.01-28.61-0.01-42.91c-0.08-3.82-2.17-7.38-5.15-9.69
		c-2.34-1.81-5.18-2.96-8.12-3.33c-1.52-0.15-3.05-0.11-4.57-0.11c-5.34,0-10.68,0-16.01,0c-0.46-0.02-0.93-0.23-1.14-0.66
		c-2.86-4.78-6.5-9.03-10.25-13.12c-0.63-0.6-1.26-1.2-1.85-1.84c-1.68-1.56-3.41-3.05-5.26-4.41c-0.56-0.56-1.35-0.85-1.86-1.47
		C108.8,2.51,109.9,2.15,110.91,1.67z"/>
	<path class="st1" d="M77.39,59.3c1.84-0.28,3.72-0.41,5.56-0.07c1.43,0.08,2.79,0.59,4.13,1.07c1.93,0.85,3.78,1.99,5.19,3.58
		c1.27,1.68,2.42,3.46,3.59,5.22c5.7,8.61,11.4,17.21,17.09,25.82c0.43,0.78,0.9,1.53,1.47,2.22c0.59,1.09,1.54,1.92,2.12,3.01
		c1.1,2.15,1.63,4.6,1.42,7.01c-0.42,3.73-2.73,7.08-5.78,9.19c-1.55,1.1-3.32,1.89-5.16,2.36c-0.99,0.18-1.96,0.52-2.97,0.49
		c-1.57-0.02-3.18,0.16-4.71-0.31c-1.72-0.29-3.36-0.94-4.88-1.79c-1.28-0.78-2.59-1.62-3.43-2.89c-1.55-2.16-2.95-4.42-4.44-6.63
		c-6.68-10.09-13.37-20.18-20.01-30.3c-1.16-1.63-1.21-3.71-1.16-5.63c-0.03-1.73,0.58-3.39,1.36-4.91
		C68.91,62.78,72.99,60.04,77.39,59.3z"/>
</g>
<g id="Warstwa_1" class="st3">
	<path class="st4" d="M86.89-30.6c1.55-0.08,3.06-0.46,4.62-0.48c3.36-0.06,6.72-0.08,10.09-0.03c3.19-0.08,6.33,0.61,9.5,0.83
		c1.51,0.35,3.05,0.57,4.59,0.78c1.09,0.37,2.21,0.59,3.34,0.74c2.85,0.81,5.75,1.51,8.54,2.54c19.09,6.48,35.87,19.49,47.04,36.26
		c6.52,9.77,11.22,20.78,13.54,32.29c0.65,2,0.56,4.14,1.17,6.16c0.18,2.44,0.59,4.88,0.59,7.34c-0.03,1.19,0.35,2.35,0.28,3.54
		c-0.03,2.09,0.14,4.21-0.24,6.28c-0.07,2.78-0.27,5.57-0.66,8.33c-0.58,2.01-0.5,4.15-1.14,6.14c-1.57,7.75-4.2,15.28-7.77,22.34
		c-0.18,0.33-0.39,0.65-0.63,0.93c-5.05-7.72-10.27-15.33-15.39-23c-8.82-13.14-17.67-26.26-26.49-39.4
		c-0.85-1.2-1.49-2.57-2.71-3.45c-2.4-3.52-5.07-6.89-8.31-9.68c-6.92-6.09-15.78-9.96-24.96-10.8c-2.01,0.01-4.02-0.41-6.02-0.12
		c-5.65,0.07-11.25,1.41-16.39,3.71c-12.7,5.5-22.45,17.38-25.29,30.92c-0.59,1.63-0.46,3.39-0.87,5.05
		c-0.07,2.19-0.31,4.37-0.11,6.55c-0.06,2.18,0.44,4.3,0.63,6.46c0.32,1.08,0.6,2.17,0.77,3.29c0.83,2.8,1.84,5.55,3.17,8.16
		c5.79,11.8,17.14,20.72,30.01,23.45c1.79,0.59,3.7,0.6,5.55,0.8c0.65,0.09,1.12,0.6,1.45,1.13c9.54,14.46,19.15,28.87,28.65,43.35
		c-1.2,0.51-2.51,0.62-3.72,1.07c-4.19,0.9-8.4,1.8-12.68,2.07c-1.53,0.2-3.07,0.45-4.62,0.44c-3.71,0.03-7.43,0.07-11.14-0.05
		c-2.09-0.28-4.19-0.47-6.28-0.71c-1.59-0.05-3.11-0.57-4.68-0.74c-10.76-2.01-21.15-5.96-30.53-11.6
		c-16.32-9.73-29.5-24.64-37.14-42.04c-2.39-5.36-4.17-10.97-5.5-16.68c-0.51-1.78-0.6-3.65-1.12-5.43
		c-0.32-2.42-0.47-4.86-0.91-7.26c-0.09-3.35-0.33-6.7-0.2-10.05c0.2-1.88,0.04-3.78,0.25-5.65c0.46-2.26,0.54-4.57,0.86-6.84
		c0.57-1.97,0.65-4.05,1.27-6.01c3.57-15.57,11.37-30.14,22.25-41.84c11.48-12.44,26.45-21.64,42.74-26.23
		c1.15-0.39,2.37-0.53,3.51-0.97c2-0.27,3.91-0.99,5.93-1.12C83.41-30.31,85.16-30.39,86.89-30.6z"/>
	<path class="st4" d="M115.87,60.67c2.85-0.43,5.77-0.64,8.61-0.1c2.22,0.12,4.32,0.92,6.4,1.66c2.99,1.32,5.85,3.08,8.03,5.54
		c1.97,2.61,3.75,5.35,5.55,8.08c8.82,13.32,17.65,26.64,26.46,39.97c0.66,1.2,1.4,2.37,2.27,3.43c0.91,1.68,2.38,2.97,3.29,4.65
		c1.7,3.33,2.52,7.12,2.2,10.86c-0.65,5.77-4.23,10.96-8.95,14.23c-2.41,1.7-5.13,2.93-7.99,3.65c-1.53,0.28-3.03,0.81-4.6,0.75
		c-2.43-0.03-4.93,0.25-7.29-0.48c-2.66-0.45-5.21-1.45-7.55-2.77c-1.98-1.2-4.01-2.51-5.32-4.47c-2.4-3.35-4.57-6.85-6.87-10.26
		c-10.34-15.63-20.7-31.25-30.98-46.92c-1.8-2.53-1.88-5.74-1.8-8.72c-0.04-2.68,0.9-5.25,2.11-7.6
		C102.75,66.06,109.06,61.82,115.87,60.67z"/>
</g>
</svg>
