<?xml version="1.0" standalone="no"?>
<!DOCTYPE svg PUBLIC "-//W3C//DTD SVG 20010904//EN"
 "http://www.w3.org/TR/2001/REC-SVG-20010904/DTD/svg10.dtd">
<svg version="1.0" xmlns="http://www.w3.org/2000/svg"
 width="400.000000pt" height="400.000000pt" viewBox="0 0 400.000000 400.000000"
 preserveAspectRatio="xMidYMid meet">
<metadata>
Created by potrace 1.11, written by Peter Selinger 2001-2013
</metadata>
<g transform="translate(0.000000,400.000000) scale(0.100000,-0.100000)"
fill="#000000" stroke="none">
<path d="M0 2000 l0 -2000 2000 0 2000 0 0 2000 0 2000 -2000 0 -2000 0 0
-2000z m1581 1075 c121 -18 270 -71 373 -132 93 -56 240 -191 301 -278 178
-251 235 -578 150 -868 -23 -79 -62 -177 -70 -177 -2 0 -113 163 -247 362
-134 199 -269 391 -302 425 -44 48 -79 74 -144 106 l-85 42 -126 0 c-125 0
-127 0 -204 -37 -176 -84 -289 -261 -286 -451 2 -222 174 -430 390 -470 l63
-12 158 -240 c105 -160 153 -242 145 -246 -35 -19 -166 -34 -282 -32 -105 1
-149 6 -230 27 -177 46 -325 128 -457 254 -131 125 -231 293 -280 472 -20 75
-23 107 -22 260 0 160 3 183 28 265 86 286 268 507 521 632 116 58 201 83 355
107 58 8 161 5 251 -9z m1419 -14 c275 -70 492 -269 554 -508 23 -87 23 -869
1 -953 -74 -281 -343 -492 -672 -530 -86 -10 -433 -14 -433 -6 0 3 9 20 20 39
29 49 52 133 51 186 0 25 -9 75 -20 110 -11 35 -18 68 -15 73 3 4 85 8 183 8
205 0 254 10 319 66 24 20 53 55 65 78 21 40 22 50 25 429 3 439 0 465 -63
530 -74 76 -95 82 -322 85 l-202 3 -65 88 c-36 49 -111 131 -167 185 l-101 96
38 16 c70 29 119 33 419 30 268 -3 309 -6 385 -25z m-1221 -996 c23 -8 56 -24
73 -37 31 -22 432 -616 455 -673 66 -167 -127 -337 -320 -281 -31 9 -70 29
-88 44 -18 15 -130 173 -248 352 -245 372 -246 374 -196 475 43 88 118 133
226 134 31 1 75 -6 98 -14z"/>
</g>
</svg>
